<svg id="Capa_1" data-name="Capa 1" xmlns="http://www.w3.org/2000/svg" viewBox="0 0 500 500"><defs><style>.cls-1{fill:#fc0;stroke:#333;stroke-linecap:round;stroke-linejoin:round;stroke-width:5px;}.cls-2{fill:#333;}</style></defs><title>Publicidad</title><rect class="cls-1" x="125.67" y="197.45" width="248.57" height="105.1"/><path class="cls-2" d="M247,277.92a1.44,1.44,0,0,1-.44-1.1v-4.41a20.25,20.25,0,0,1-7.77-2.2,13.3,13.3,0,0,1-4.91-4.31,10.75,10.75,0,0,1-1.8-5.45,1.27,1.27,0,0,1,.41-.91,1.36,1.36,0,0,1,1-.41h5.66a2,2,0,0,1,1.17.28,3.19,3.19,0,0,1,.79.91,6.71,6.71,0,0,0,2.92,3.59,11.18,11.18,0,0,0,6.14,1.45q4.35,0,6.58-1.48a4.62,4.62,0,0,0,2.24-4.06,3.82,3.82,0,0,0-1.14-2.83,9.42,9.42,0,0,0-3.43-2q-2.3-.84-6.77-2-7.43-1.77-10.89-4.66T233.26,240a11,11,0,0,1,3.56-8.31,16.55,16.55,0,0,1,9.72-4.16v-4.34a1.44,1.44,0,0,1,.44-1.1,1.54,1.54,0,0,1,1.07-.41H252a1.41,1.41,0,0,1,1.51,1.51v4.47a17.54,17.54,0,0,1,7,2.42,14,14,0,0,1,4.47,4.32,10.06,10.06,0,0,1,1.67,4.78,1.31,1.31,0,0,1-.38,1,1.29,1.29,0,0,1-.95.37h-6a1.81,1.81,0,0,1-1.82-1.13A5.13,5.13,0,0,0,255,236a9.58,9.58,0,0,0-5.26-1.35,9.73,9.73,0,0,0-5.44,1.32,4.33,4.33,0,0,0-2,3.84,4.17,4.17,0,0,0,1,2.83,8.12,8.12,0,0,0,3.15,2,48.22,48.22,0,0,0,6.2,1.89,43.7,43.7,0,0,1,8.91,2.83,11.62,11.62,0,0,1,4.88,4,10.88,10.88,0,0,1,1.57,6.1,11.19,11.19,0,0,1-3.93,8.88q-3.94,3.4-10.61,4.09v4.41a1.41,1.41,0,0,1-1.51,1.51h-3.91A1.54,1.54,0,0,1,247,277.92Z"/></svg>