<?xml version="1.0" encoding="utf-8"?>
<!-- Generator: Adobe Illustrator 22.1.0, SVG Export Plug-In . SVG Version: 6.00 Build 0)  -->
<svg version="1.1" id="Capa_1" xmlns="http://www.w3.org/2000/svg" xmlns:xlink="http://www.w3.org/1999/xlink" x="0px" y="0px"
	 viewBox="0 0 500 500" style="enable-background:new 0 0 500 500;" xml:space="preserve">
<style type="text/css">
	.st0{fill:#FFFFFF;stroke:#333333;stroke-width:5;stroke-linecap:round;stroke-linejoin:round;}
	.st1{fill:#FFCC00;stroke:#333333;stroke-width:5;stroke-linecap:round;stroke-linejoin:round;}
	.st2{fill:none;stroke:#333333;stroke-width:5;stroke-linecap:round;stroke-linejoin:round;}
</style>
<title>Home-5</title>
<rect x="185.1" y="208.5" class="st0" width="129.8" height="54.9"/>
<rect x="342.5" y="208.5" class="st0" width="129.8" height="54.9"/>
<rect x="27.8" y="208.5" class="st0" width="129.8" height="54.9"/>
<rect x="185.1" y="287.5" class="st0" width="129.8" height="54.9"/>
<rect x="342.5" y="287.5" class="st0" width="129.8" height="54.9"/>
<rect x="27.8" y="287.5" class="st0" width="129.8" height="54.9"/>
<circle class="st1" cx="57.7" cy="235.9" r="15"/>
<line class="st2" x1="86.3" y1="235.9" x2="142.7" y2="235.9"/>
<circle class="st1" cx="215" cy="235.9" r="15"/>
<line class="st2" x1="243.6" y1="235.9" x2="300" y2="235.9"/>
<circle class="st1" cx="372.3" cy="235.9" r="15"/>
<line class="st2" x1="400.9" y1="235.9" x2="457.4" y2="235.9"/>
<circle class="st1" cx="57.7" cy="314.9" r="15"/>
<line class="st2" x1="86.3" y1="314.9" x2="142.7" y2="314.9"/>
<circle class="st1" cx="215" cy="314.9" r="15"/>
<line class="st2" x1="243.6" y1="314.9" x2="300" y2="314.9"/>
<circle class="st1" cx="372.3" cy="314.9" r="15"/>
<line class="st2" x1="400.9" y1="314.9" x2="457.4" y2="314.9"/>
</svg>
