<svg id="Capa_1" data-name="Capa 1" xmlns="http://www.w3.org/2000/svg" xmlns:xlink="http://www.w3.org/1999/xlink" viewBox="0 0 500 500"><defs><style>.cls-1,.cls-4,.cls-5{fill:none;}.cls-2{clip-path:url(#clip-path);}.cls-3{fill:#fc0;stroke-width:5px;}.cls-3,.cls-4,.cls-5{stroke:#333;stroke-linecap:round;stroke-linejoin:round;}.cls-4{stroke-width:10px;}.cls-5{stroke-width:12px;}.cls-6{clip-path:url(#clip-path-2);}.cls-7{clip-path:url(#clip-path-3);}.cls-8{clip-path:url(#clip-path-4);}.cls-9{clip-path:url(#clip-path-5);}</style><clipPath id="clip-path"><rect class="cls-1" x="27.87" y="267.94" width="129.58" height="117.27"/></clipPath><clipPath id="clip-path-2"><rect class="cls-1" x="27.87" y="114.79" width="129.58" height="117.27"/></clipPath><clipPath id="clip-path-3"><rect class="cls-1" x="185.21" y="267.94" width="129.58" height="117.27"/></clipPath><clipPath id="clip-path-4"><rect class="cls-1" x="185.21" y="114.79" width="129.58" height="117.27"/></clipPath><clipPath id="clip-path-5"><rect class="cls-1" x="342.54" y="114.79" width="129.58" height="117.27"/></clipPath></defs><title>Card-TI-Stacked</title><g class="cls-2"><circle class="cls-3" cx="92.66" cy="368.33" r="42.79"/></g><rect class="cls-4" x="27.87" y="267.94" width="129.58" height="117.27"/><line class="cls-5" x1="61.04" y1="298.94" x2="124.29" y2="298.94"/><g class="cls-6"><circle class="cls-3" cx="92.66" cy="215.19" r="42.79"/></g><rect class="cls-4" x="27.87" y="114.79" width="129.58" height="117.27"/><line class="cls-5" x1="61.04" y1="145.8" x2="124.29" y2="145.8"/><g class="cls-7"><circle class="cls-3" cx="250" cy="368.33" r="42.79"/></g><rect class="cls-4" x="185.21" y="267.94" width="129.58" height="117.27"/><line class="cls-5" x1="218.38" y1="298.94" x2="281.62" y2="298.94"/><g class="cls-8"><circle class="cls-3" cx="250" cy="215.19" r="42.79"/></g><rect class="cls-4" x="185.21" y="114.79" width="129.58" height="117.27"/><line class="cls-5" x1="218.38" y1="145.8" x2="281.62" y2="145.8"/><g class="cls-9"><circle class="cls-3" cx="407.34" cy="215.19" r="42.79"/></g><rect class="cls-4" x="342.54" y="114.79" width="129.58" height="117.27"/><line class="cls-5" x1="375.71" y1="145.8" x2="438.96" y2="145.8"/></svg>