<svg id="Capa_1" data-name="Capa 1" xmlns="http://www.w3.org/2000/svg" viewBox="0 0 500 500"><defs><style>.cls-1,.cls-2,.cls-3,.cls-4{fill:none;stroke-linecap:round;stroke-linejoin:round;}.cls-1,.cls-2,.cls-4{stroke:#333;}.cls-1{stroke-width:12px;}.cls-2,.cls-3{stroke-width:5px;}.cls-3{stroke:#fc0;}.cls-4{stroke-width:10px;}</style></defs><title>Card-TLA</title><line class="cls-1" x1="168.7" y1="126.7" x2="288.91" y2="126.7"/><line class="cls-2" x1="221.09" y1="167.82" x2="325.76" y2="167.82"/><line class="cls-2" x1="221.09" y1="202.26" x2="325.76" y2="202.26"/><line class="cls-2" x1="221.09" y1="236.71" x2="325.76" y2="236.71"/><line class="cls-2" x1="221.09" y1="271.15" x2="325.76" y2="271.15"/><line class="cls-2" x1="221.09" y1="305.59" x2="325.76" y2="305.59"/><line class="cls-2" x1="221.09" y1="340.03" x2="325.76" y2="340.03"/><line class="cls-2" x1="221.09" y1="374.47" x2="325.76" y2="374.47"/><line class="cls-3" x1="165.39" y1="167.82" x2="203.98" y2="167.82"/><line class="cls-3" x1="165.39" y1="202.37" x2="203.98" y2="202.37"/><line class="cls-3" x1="165.39" y1="236.91" x2="203.98" y2="236.91"/><line class="cls-3" x1="165.39" y1="271.45" x2="203.98" y2="271.45"/><line class="cls-3" x1="165.39" y1="306" x2="203.98" y2="306"/><line class="cls-3" x1="165.39" y1="340.54" x2="203.98" y2="340.54"/><line class="cls-3" x1="165.39" y1="375.09" x2="203.98" y2="375.09"/><rect class="cls-4" x="123.39" y="77" width="253.23" height="346"/></svg>