<svg id="Capa_1" data-name="Capa 1" xmlns="http://www.w3.org/2000/svg" viewBox="0 0 500 500"><defs><style>.cls-1,.cls-2,.cls-3{fill:none;}.cls-1,.cls-2,.cls-3,.cls-4{stroke:#333;stroke-linecap:round;stroke-linejoin:round;}.cls-1{stroke-width:12px;}.cls-2{stroke-width:5px;}.cls-3,.cls-4{stroke-width:10px;}.cls-4{fill:#fc0;}</style></defs><title>Card-PTD-Block</title><line class="cls-1" x1="208.32" y1="293.41" x2="281.08" y2="293.41"/><line class="cls-2" x1="206.62" y1="314.49" x2="274.67" y2="314.49"/><line class="cls-2" x1="206.62" y1="331.16" x2="253.43" y2="331.16"/><rect class="cls-3" x="185.09" y="267.93" width="129.83" height="88.71"/><rect class="cls-4" x="185.09" y="143.36" width="129.83" height="124.57"/><line class="cls-1" x1="50.98" y1="293.41" x2="123.75" y2="293.41"/><line class="cls-2" x1="49.29" y1="314.49" x2="117.34" y2="314.49"/><line class="cls-2" x1="49.29" y1="331.16" x2="96.1" y2="331.16"/><rect class="cls-3" x="27.75" y="267.93" width="129.83" height="88.71"/><rect class="cls-4" x="27.75" y="143.36" width="129.83" height="124.57"/><line class="cls-1" x1="365.65" y1="293.41" x2="438.42" y2="293.41"/><line class="cls-2" x1="363.95" y1="314.49" x2="432.01" y2="314.49"/><line class="cls-2" x1="363.95" y1="331.16" x2="410.77" y2="331.16"/><rect class="cls-3" x="342.42" y="267.93" width="129.83" height="88.71"/><rect class="cls-4" x="342.42" y="143.36" width="129.83" height="124.57"/></svg>