<svg id="Capa_1" data-name="Capa 1" xmlns="http://www.w3.org/2000/svg" viewBox="0 0 500 500"><defs><style>.cls-1,.cls-2,.cls-3{fill:none;}.cls-1,.cls-2,.cls-3,.cls-4{stroke:#333;stroke-linecap:round;stroke-linejoin:round;}.cls-1{stroke-width:10px;}.cls-2{stroke-width:12px;}.cls-3,.cls-4{stroke-width:5px;}.cls-4{fill:#fc0;}</style></defs><title>Card-ITDA</title><rect class="cls-1" x="184.92" y="162.66" width="130" height="174.67"/><line class="cls-2" x1="207.92" y1="247.75" x2="280.78" y2="247.75"/><line class="cls-3" x1="206.22" y1="272.91" x2="293.61" y2="272.91"/><line class="cls-3" x1="206.22" y1="289.59" x2="253.09" y2="289.59"/><circle class="cls-4" cx="229.32" cy="205.68" r="23.1"/><polyline class="cls-3" points="284.67 299.53 293.61 308.47 284.67 317.41"/><rect class="cls-1" x="27.58" y="162.66" width="130" height="174.67"/><line class="cls-2" x1="50.59" y1="247.75" x2="123.45" y2="247.75"/><line class="cls-3" x1="48.88" y1="272.91" x2="136.28" y2="272.91"/><line class="cls-3" x1="48.88" y1="289.59" x2="95.76" y2="289.59"/><circle class="cls-4" cx="71.98" cy="205.68" r="23.1"/><polyline class="cls-3" points="127.34 299.53 136.28 308.47 127.34 317.41"/><rect class="cls-1" x="342.25" y="162.66" width="130" height="174.67"/><line class="cls-2" x1="365.25" y1="247.75" x2="438.11" y2="247.75"/><line class="cls-3" x1="363.55" y1="272.91" x2="450.95" y2="272.91"/><line class="cls-3" x1="363.55" y1="289.59" x2="410.43" y2="289.59"/><circle class="cls-4" cx="386.65" cy="205.68" r="23.1"/><polyline class="cls-3" points="442 299.53 450.95 308.47 442 317.41"/></svg>