<svg id="Capa_1" data-name="Capa 1" xmlns="http://www.w3.org/2000/svg" viewBox="0 0 500 500"><defs><style>.cls-1{fill:#fc0;}.cls-1,.cls-2,.cls-3,.cls-4{stroke:#333;stroke-linecap:round;stroke-linejoin:round;}.cls-1,.cls-2{stroke-width:10px;}.cls-2,.cls-3,.cls-4{fill:none;}.cls-3{stroke-width:12px;}.cls-4{stroke-width:5px;}</style></defs><title>Card-1PTD-4TD</title><rect class="cls-1" x="30" y="147.01" width="206.52" height="206.52"/><rect class="cls-2" x="262.94" y="146.47" width="90.59" height="90.59"/><line class="cls-3" x1="282.72" y1="170.2" x2="335.2" y2="170.2"/><line class="cls-4" x1="281.27" y1="199.14" x2="329.74" y2="199.14"/><line class="cls-4" x1="281.27" y1="213.33" x2="311.65" y2="213.33"/><line class="cls-3" x1="399.19" y1="170.2" x2="451.67" y2="170.2"/><line class="cls-4" x1="397.75" y1="199.14" x2="446.21" y2="199.14"/><line class="cls-4" x1="397.75" y1="213.33" x2="428.13" y2="213.33"/><line class="cls-3" x1="282.72" y1="286.67" x2="335.2" y2="286.67"/><line class="cls-4" x1="281.27" y1="315.62" x2="329.74" y2="315.62"/><line class="cls-4" x1="281.27" y1="329.8" x2="311.65" y2="329.8"/><line class="cls-3" x1="399.19" y1="286.67" x2="451.67" y2="286.67"/><line class="cls-4" x1="397.75" y1="315.62" x2="446.21" y2="315.62"/><line class="cls-4" x1="397.75" y1="329.8" x2="428.13" y2="329.8"/><rect class="cls-2" x="262.94" y="262.94" width="90.59" height="90.59"/><rect class="cls-2" x="379.41" y="146.47" width="90.59" height="90.59"/><rect class="cls-2" x="379.41" y="262.94" width="90.59" height="90.59"/><line class="cls-3" x1="69.9" y1="187.18" x2="178.82" y2="187.18"/><line class="cls-4" x1="67.75" y1="299.17" x2="162.65" y2="299.17"/><line class="cls-4" x1="67.75" y1="313.36" x2="127.06" y2="313.36"/></svg>