<svg id="Capa_1" data-name="Capa 1" xmlns="http://www.w3.org/2000/svg" viewBox="0 0 500 500"><defs><style>.cls-1,.cls-2,.cls-3{fill:none;stroke:#333;stroke-linecap:round;stroke-linejoin:round;}.cls-1{stroke-width:12px;}.cls-2{stroke-width:5px;}.cls-3{stroke-width:10px;}</style></defs><title>Card-TD</title><line class="cls-1" x1="214.79" y1="140.01" x2="287.12" y2="140.01"/><line class="cls-2" x1="212.8" y1="179.91" x2="279.6" y2="179.91"/><line class="cls-2" x1="212.8" y1="199.46" x2="254.67" y2="199.46"/><rect class="cls-3" x="185.09" y="107.31" width="129.75" height="124.86"/><line class="cls-1" x1="214.79" y1="300.54" x2="287.12" y2="300.54"/><line class="cls-2" x1="212.8" y1="340.44" x2="279.6" y2="340.44"/><line class="cls-2" x1="212.8" y1="359.99" x2="254.67" y2="359.99"/><rect class="cls-3" x="185.09" y="267.84" width="129.75" height="124.86"/><line class="cls-1" x1="372.13" y1="140.01" x2="444.45" y2="140.01"/><line class="cls-2" x1="370.13" y1="179.91" x2="436.93" y2="179.91"/><line class="cls-2" x1="370.13" y1="199.46" x2="412.01" y2="199.46"/><rect class="cls-3" x="342.42" y="107.31" width="129.75" height="124.86"/><line class="cls-1" x1="372.13" y1="300.54" x2="444.45" y2="300.54"/><line class="cls-2" x1="370.13" y1="340.44" x2="436.93" y2="340.44"/><line class="cls-2" x1="370.13" y1="359.99" x2="412.01" y2="359.99"/><rect class="cls-3" x="342.42" y="267.84" width="129.75" height="124.86"/><line class="cls-1" x1="57.46" y1="140.01" x2="129.79" y2="140.01"/><line class="cls-2" x1="55.47" y1="179.91" x2="122.26" y2="179.91"/><line class="cls-2" x1="55.47" y1="199.46" x2="97.34" y2="199.46"/><rect class="cls-3" x="27.75" y="107.31" width="129.75" height="124.86"/><line class="cls-1" x1="57.46" y1="300.54" x2="129.79" y2="300.54"/><line class="cls-2" x1="55.47" y1="340.44" x2="122.26" y2="340.44"/><line class="cls-2" x1="55.47" y1="359.99" x2="97.34" y2="359.99"/><rect class="cls-3" x="27.75" y="267.84" width="129.75" height="124.86"/></svg>