<svg id="Capa_1" data-name="Capa 1" xmlns="http://www.w3.org/2000/svg" viewBox="0 0 500 500"><defs><style>.cls-1{fill:#fff;}.cls-1,.cls-2,.cls-3,.cls-4{stroke:#333;stroke-linecap:round;stroke-linejoin:round;}.cls-1,.cls-3,.cls-4{stroke-width:5px;}.cls-2,.cls-3{fill:none;}.cls-2{stroke-width:6px;}.cls-4{fill:#fc0;}</style></defs><title>Home-5</title><rect class="cls-1" x="185.13" y="208.51" width="129.75" height="54.86"/><rect class="cls-1" x="342.46" y="208.51" width="129.75" height="54.86"/><rect class="cls-1" x="27.79" y="208.51" width="129.75" height="54.86"/><rect class="cls-1" x="185.13" y="287.51" width="129.75" height="54.86"/><rect class="cls-1" x="342.46" y="287.51" width="129.75" height="54.86"/><rect class="cls-1" x="27.79" y="287.51" width="129.75" height="54.86"/><line class="cls-2" x1="30.04" y1="167.19" x2="121.26" y2="167.19"/><polyline class="cls-3" points="460.49 157.63 470.04 167.19 460.49 176.74"/><line class="cls-3" x1="419.58" y1="167.19" x2="449.98" y2="167.19"/><circle class="cls-4" cx="57.65" cy="235.94" r="15.03"/><line class="cls-1" x1="86.28" y1="235.94" x2="142.72" y2="235.94"/><circle class="cls-4" cx="214.98" cy="235.94" r="15.03"/><line class="cls-1" x1="243.61" y1="235.94" x2="300.05" y2="235.94"/><circle class="cls-4" cx="372.32" cy="235.94" r="15.03"/><line class="cls-1" x1="400.94" y1="235.94" x2="457.38" y2="235.94"/><circle class="cls-4" cx="57.65" cy="314.94" r="15.03"/><line class="cls-1" x1="86.28" y1="314.94" x2="142.72" y2="314.94"/><circle class="cls-4" cx="214.98" cy="314.94" r="15.03"/><line class="cls-1" x1="243.61" y1="314.94" x2="300.05" y2="314.94"/><circle class="cls-4" cx="372.32" cy="314.94" r="15.03"/><line class="cls-1" x1="400.94" y1="314.94" x2="457.38" y2="314.94"/></svg>