<svg id="Capa_1" data-name="Capa 1" xmlns="http://www.w3.org/2000/svg" viewBox="0 0 500 500"><defs><style>.cls-1{fill:#fc0;}.cls-1,.cls-2,.cls-3,.cls-4,.cls-5{stroke:#333;stroke-linecap:round;stroke-linejoin:round;}.cls-1,.cls-2{stroke-width:10px;}.cls-2,.cls-3,.cls-4,.cls-5{fill:none;}.cls-3{stroke-width:12px;}.cls-4{stroke-width:5px;}.cls-5{stroke-width:6px;}</style></defs><title>Home-4</title><rect class="cls-1" x="30" y="136.48" width="206.52" height="206.52"/><rect class="cls-2" x="262.94" y="135.94" width="90.59" height="90.59"/><line class="cls-3" x1="282.72" y1="159.67" x2="335.2" y2="159.67"/><line class="cls-4" x1="281.27" y1="188.62" x2="329.74" y2="188.62"/><line class="cls-4" x1="281.27" y1="202.81" x2="311.65" y2="202.81"/><line class="cls-3" x1="399.19" y1="159.67" x2="451.67" y2="159.67"/><line class="cls-4" x1="397.75" y1="188.62" x2="446.21" y2="188.62"/><line class="cls-4" x1="397.75" y1="202.81" x2="428.13" y2="202.81"/><line class="cls-3" x1="282.72" y1="276.14" x2="335.2" y2="276.14"/><line class="cls-4" x1="281.27" y1="305.09" x2="329.74" y2="305.09"/><line class="cls-4" x1="281.27" y1="319.28" x2="311.65" y2="319.28"/><line class="cls-3" x1="399.19" y1="276.14" x2="451.67" y2="276.14"/><line class="cls-4" x1="397.75" y1="305.09" x2="446.21" y2="305.09"/><line class="cls-4" x1="397.75" y1="319.28" x2="428.13" y2="319.28"/><rect class="cls-2" x="262.94" y="252.41" width="90.59" height="90.59"/><rect class="cls-2" x="379.41" y="135.94" width="90.59" height="90.59"/><rect class="cls-2" x="379.41" y="252.41" width="90.59" height="90.59"/><line class="cls-3" x1="69.9" y1="176.65" x2="178.82" y2="176.65"/><line class="cls-4" x1="67.75" y1="288.64" x2="162.65" y2="288.64"/><line class="cls-4" x1="67.75" y1="302.83" x2="127.06" y2="302.83"/><rect class="cls-4" x="30" y="369.85" width="28.67" height="38.45"/><line class="cls-4" x1="71.75" y1="381.98" x2="120.21" y2="381.98"/><line class="cls-4" x1="71.75" y1="396.17" x2="102.13" y2="396.17"/><rect class="cls-4" x="146.6" y="369.85" width="28.67" height="38.45"/><line class="cls-4" x1="188.34" y1="381.98" x2="236.81" y2="381.98"/><line class="cls-4" x1="188.34" y1="396.17" x2="218.72" y2="396.17"/><rect class="cls-4" x="263.19" y="369.85" width="28.67" height="38.45"/><line class="cls-4" x1="304.94" y1="381.98" x2="353.4" y2="381.98"/><line class="cls-4" x1="304.94" y1="396.17" x2="335.32" y2="396.17"/><rect class="cls-4" x="379.79" y="369.85" width="28.67" height="38.45"/><line class="cls-4" x1="421.54" y1="381.98" x2="470" y2="381.98"/><line class="cls-4" x1="421.54" y1="396.17" x2="451.92" y2="396.17"/><line class="cls-5" x1="30" y1="101.25" x2="121.22" y2="101.25"/><polyline class="cls-4" points="460.45 91.7 470 101.25 460.45 110.8"/><line class="cls-4" x1="419.54" y1="101.25" x2="449.94" y2="101.25"/></svg>