<svg id="Capa_1" data-name="Capa 1" xmlns="http://www.w3.org/2000/svg" viewBox="0 0 500 500"><defs><style>.cls-1,.cls-8{fill:#fff;}.cls-1,.cls-2,.cls-3,.cls-4,.cls-5,.cls-6,.cls-7,.cls-8{stroke:#333;stroke-linecap:round;stroke-linejoin:round;}.cls-1,.cls-3,.cls-6{stroke-width:5px;}.cls-2,.cls-3,.cls-4,.cls-5,.cls-7{fill:none;}.cls-2{stroke-width:6px;}.cls-4{stroke-width:10px;}.cls-5{stroke-width:12px;}.cls-6{fill:#fc0;}.cls-7{stroke-width:3px;}.cls-8{stroke-width:7px;}</style></defs><title>Home-6</title><rect class="cls-1" x="18.56" y="370.85" width="90.05" height="38.45"/><rect class="cls-1" x="142.84" y="370.85" width="90.05" height="38.45"/><rect class="cls-1" x="267.11" y="370.85" width="90.05" height="38.45"/><rect class="cls-1" x="391.39" y="370.85" width="90.05" height="38.45"/><line class="cls-2" x1="18.56" y1="100.25" x2="109.78" y2="100.25"/><polyline class="cls-3" points="471.89 90.7 481.44 100.25 471.89 109.8"/><line class="cls-3" x1="430.99" y1="100.25" x2="461.38" y2="100.25"/><line class="cls-1" x1="50.27" y1="390.08" x2="76.9" y2="390.08"/><line class="cls-1" x1="174.55" y1="390.08" x2="201.17" y2="390.08"/><line class="cls-1" x1="298.83" y1="390.08" x2="325.45" y2="390.08"/><line class="cls-1" x1="423.1" y1="390.08" x2="449.73" y2="390.08"/><rect class="cls-4" x="18.56" y="131.48" width="134.47" height="206.52"/><line class="cls-5" x1="39.17" y1="161.65" x2="102.48" y2="161.65"/><line class="cls-1" x1="90.95" y1="207.06" x2="131.58" y2="207.06"/><line class="cls-1" x1="90.95" y1="220.06" x2="117.58" y2="220.06"/><rect class="cls-6" x="36.3" y="194.34" width="45.87" height="38.45" transform="translate(272.8 154.33) rotate(90)"/><line class="cls-1" x1="90.95" y1="269.42" x2="131.58" y2="269.42"/><line class="cls-1" x1="90.95" y1="282.42" x2="117.58" y2="282.42"/><rect class="cls-6" x="36.3" y="256.7" width="45.87" height="38.45" transform="translate(335.15 216.69) rotate(90)"/><polyline class="cls-3" points="124.95 305.96 131.58 312.58 124.95 319.21"/><rect class="cls-4" x="187.26" y="131.48" width="134.47" height="206.52"/><line class="cls-5" x1="207.87" y1="161.65" x2="271.18" y2="161.65"/><line class="cls-1" x1="259.65" y1="207.06" x2="300.28" y2="207.06"/><line class="cls-1" x1="259.65" y1="220.06" x2="286.28" y2="220.06"/><rect class="cls-6" x="205" y="194.34" width="45.87" height="38.45" transform="translate(441.5 -14.37) rotate(90)"/><line class="cls-1" x1="259.65" y1="269.42" x2="300.28" y2="269.42"/><line class="cls-1" x1="259.65" y1="282.42" x2="286.28" y2="282.42"/><rect class="cls-6" x="205" y="256.7" width="45.87" height="38.45" transform="translate(503.85 47.99) rotate(90)"/><polyline class="cls-3" points="293.65 305.96 300.28 312.58 293.65 319.21"/><line class="cls-7" x1="355.95" y1="206.92" x2="481.44" y2="206.92"/><line class="cls-7" x1="355.95" y1="279.76" x2="481.44" y2="279.76"/><line class="cls-1" x1="434.82" y1="164" x2="475.44" y2="164"/><line class="cls-1" x1="434.82" y1="177" x2="461.44" y2="177"/><rect class="cls-6" x="357.16" y="151.27" width="65.87" height="38.45"/><line class="cls-1" x1="434.82" y1="236.84" x2="475.44" y2="236.84"/><line class="cls-1" x1="434.82" y1="249.84" x2="461.44" y2="249.84"/><rect class="cls-6" x="357.16" y="224.11" width="65.87" height="38.45"/><line class="cls-1" x1="434.82" y1="309.68" x2="475.44" y2="309.68"/><line class="cls-1" x1="434.82" y1="322.68" x2="461.44" y2="322.68"/><rect class="cls-6" x="357.16" y="296.95" width="65.87" height="38.45"/><line class="cls-8" x1="355.95" y1="134.08" x2="439.3" y2="134.08"/></svg>