<svg id="Capa_1" data-name="Capa 1" xmlns="http://www.w3.org/2000/svg" viewBox="0 0 500 500"><defs><style>.cls-1{fill:#fc0;}.cls-1,.cls-2,.cls-3,.cls-4,.cls-5{stroke:#333;stroke-linecap:round;stroke-linejoin:round;}.cls-1,.cls-4{stroke-width:10px;}.cls-2,.cls-4{fill:#fff;}.cls-2{stroke-width:7px;}.cls-3,.cls-5{fill:none;}.cls-3{stroke-width:5px;}.cls-5{stroke-width:12px;}</style></defs><title>Home-1</title><rect class="cls-1" x="262.94" y="145.06" width="90.59" height="80.59"/><rect class="cls-1" x="262.94" y="261.53" width="90.59" height="70.59"/><rect class="cls-1" x="379.41" y="145.06" width="90.59" height="80.59"/><rect class="cls-1" x="379.41" y="261.53" width="90.59" height="80.59"/><rect class="cls-1" x="30" y="145.6" width="206.52" height="186.52"/><rect class="cls-2" x="276.57" y="312.15" width="63.33" height="42.11"/><line class="cls-3" x1="293.05" y1="327.7" x2="323.43" y2="327.7"/><line class="cls-3" x1="293.05" y1="338.7" x2="315.43" y2="338.7"/><rect class="cls-2" x="393.04" y="312.15" width="63.33" height="42.11"/><line class="cls-3" x1="409.52" y1="327.7" x2="439.9" y2="327.7"/><line class="cls-3" x1="409.52" y1="338.7" x2="431.9" y2="338.7"/><rect class="cls-2" x="276.57" y="195.6" width="63.33" height="42.11"/><line class="cls-3" x1="293.05" y1="211.15" x2="323.43" y2="211.15"/><line class="cls-3" x1="293.05" y1="222.15" x2="315.43" y2="222.15"/><rect class="cls-2" x="393.04" y="195.6" width="63.33" height="42.11"/><line class="cls-3" x1="409.52" y1="211.15" x2="439.9" y2="211.15"/><line class="cls-3" x1="409.52" y1="222.15" x2="431.9" y2="222.15"/><rect class="cls-4" x="51.52" y="281.65" width="163.49" height="73.28"/><line class="cls-5" x1="78.8" y1="306.8" x2="187.72" y2="306.8"/><line class="cls-5" x1="78.8" y1="329.8" x2="159.24" y2="329.8"/></svg>