<svg id="Capa_1" data-name="Capa 1" xmlns="http://www.w3.org/2000/svg" viewBox="0 0 500 500"><title>html</title><path d="M74,280.73,37.86,256a8.75,8.75,0,0,1-2.35-2.13,4.39,4.39,0,0,1-.74-2.56v-2.56a4.6,4.6,0,0,1,.69-2.56,8.65,8.65,0,0,1,2.4-2.24L74,219.27a3.51,3.51,0,0,1,2.13-1,2.1,2.1,0,0,1,1.55.59,2.23,2.23,0,0,1,.58,1.65v8.22a3.42,3.42,0,0,1-.64,2.19,9.64,9.64,0,0,1-2,1.76L49.81,250l25.82,17.28a9.64,9.64,0,0,1,2,1.76,3.23,3.23,0,0,1,.64,2.08v8.32a2,2,0,0,1-.64,1.55,2.13,2.13,0,0,1-1.49.59A3.45,3.45,0,0,1,74,280.73Z"/><path d="M88.86,286.7a2.46,2.46,0,0,1-.75-1.81V215.43a2.72,2.72,0,0,1,.69-1.92,2.44,2.44,0,0,1,1.87-.74h9.81a2.55,2.55,0,0,1,2.67,2.66v27.42H134.3V215.43a2.6,2.6,0,0,1,.75-1.92,2.49,2.49,0,0,1,1.81-.74h9.93a2.43,2.43,0,0,1,1.86.74,2.72,2.72,0,0,1,.69,1.92v69.46a2.57,2.57,0,0,1-.69,1.81,2.4,2.4,0,0,1-1.86.75h-9.93a2.56,2.56,0,0,1-2.56-2.56V256.4H103.15v28.49a2.46,2.46,0,0,1-.75,1.81,2.57,2.57,0,0,1-1.92.75H90.67A2.45,2.45,0,0,1,88.86,286.7Z"/><path d="M177.83,286.7a2.46,2.46,0,0,1-.75-1.81V226.1H157.35a2.5,2.5,0,0,1-1.82-.74,2.59,2.59,0,0,1-.74-1.92v-8a2.72,2.72,0,0,1,.69-1.92,2.44,2.44,0,0,1,1.87-.74h54.51a2.63,2.63,0,0,1,1.92.74,2.6,2.6,0,0,1,.75,1.92v8a2.6,2.6,0,0,1-.75,1.92,2.63,2.63,0,0,1-1.92.74H192.23v58.79a2.57,2.57,0,0,1-.69,1.81,2.43,2.43,0,0,1-1.87.75h-10A2.46,2.46,0,0,1,177.83,286.7Z"/><path d="M220.71,286.7a2.49,2.49,0,0,1-.74-1.81V215.43a2.72,2.72,0,0,1,.69-1.92,2.45,2.45,0,0,1,1.87-.74h8.64a3.57,3.57,0,0,1,3.2,2L255,253l20.59-38.2a3.57,3.57,0,0,1,3.2-2h8.54a2.54,2.54,0,0,1,2.66,2.66v69.46a2.43,2.43,0,0,1-.74,1.86,2.69,2.69,0,0,1-1.92.7h-9.18a2.56,2.56,0,0,1-2.56-2.56V239l-14.83,28.17a3.76,3.76,0,0,1-3.52,2.34h-4.48a4.14,4.14,0,0,1-3.63-2.34L234.26,239v45.88a2.57,2.57,0,0,1-.69,1.81,2.41,2.41,0,0,1-1.87.75h-9.17A2.48,2.48,0,0,1,220.71,286.7Z"/><path d="M302,286.7a2.46,2.46,0,0,1-.75-1.81V215.33a2.43,2.43,0,0,1,.75-1.87,2.56,2.56,0,0,1,1.81-.69h10a2.38,2.38,0,0,1,2.56,2.56v59.31h33.82a2.6,2.6,0,0,1,1.92.75,2.46,2.46,0,0,1,.75,1.81v7.69a2.46,2.46,0,0,1-.75,1.81,2.6,2.6,0,0,1-1.92.75H303.82A2.45,2.45,0,0,1,302,286.7Z"/><path d="M369.22,295.77a2.16,2.16,0,0,1-.64-1.6,3.22,3.22,0,0,1,.21-1.18l36.28-87.16a4.61,4.61,0,0,1,1.28-1.54,3.2,3.2,0,0,1,2.13-.7h6.93a2.19,2.19,0,0,1,1.6.64,2.16,2.16,0,0,1,.64,1.6,3.22,3.22,0,0,1-.21,1.18L381,294.17a3.76,3.76,0,0,1-1.12,1.54,3.17,3.17,0,0,1-2.18.7h-6.94A2.07,2.07,0,0,1,369.22,295.77Z"/><path d="M422.35,281a2,2,0,0,1-.64-1.55v-8.32a3.23,3.23,0,0,1,.64-2.08,9.64,9.64,0,0,1,2-1.76L450.19,250l-25.82-17.28a9.64,9.64,0,0,1-2-1.76,3.42,3.42,0,0,1-.64-2.19v-8.22a2.11,2.11,0,0,1,2.13-2.24,3.51,3.51,0,0,1,2.13,1l36.17,24.65a8.65,8.65,0,0,1,2.4,2.24,4.6,4.6,0,0,1,.69,2.56v2.56a4.39,4.39,0,0,1-.74,2.56,8.75,8.75,0,0,1-2.35,2.13L426,280.73a3.45,3.45,0,0,1-2.13.85A2.13,2.13,0,0,1,422.35,281Z"/></svg>