<svg id="Capa_1" data-name="Capa 1" xmlns="http://www.w3.org/2000/svg" viewBox="0 0 500 500"><title>iframe</title><path d="M63,276.78,31.45,255.21a7.53,7.53,0,0,1-2-1.86,3.76,3.76,0,0,1-.65-2.23v-2.24a4,4,0,0,1,.6-2.23,7.55,7.55,0,0,1,2.09-2L63,223.22a3.05,3.05,0,0,1,1.86-.84,1.82,1.82,0,0,1,1.35.51,2,2,0,0,1,.51,1.44v7.16a3,3,0,0,1-.56,1.91,8.38,8.38,0,0,1-1.76,1.53L41.87,250l22.51,15.07a8.38,8.38,0,0,1,1.76,1.53,2.83,2.83,0,0,1,.56,1.81v7.26a1.75,1.75,0,0,1-.56,1.35,1.85,1.85,0,0,1-1.3.51A3,3,0,0,1,63,276.78Z"/><path d="M75.91,282a2.12,2.12,0,0,1-.65-1.58V219.77a2.07,2.07,0,0,1,.65-1.62,2.2,2.2,0,0,1,1.58-.61h8.93a2.1,2.1,0,0,1,2.23,2.23v60.64A2.2,2.2,0,0,1,88,282a2.07,2.07,0,0,1-1.62.65H77.49A2.12,2.12,0,0,1,75.91,282Z"/><path d="M99.16,282a2.13,2.13,0,0,1-.66-1.58V219.87a2.41,2.41,0,0,1,.61-1.68,2.12,2.12,0,0,1,1.63-.65h40.45a2.23,2.23,0,0,1,2.33,2.33v6.69a2.2,2.2,0,0,1-.65,1.59,2.31,2.31,0,0,1-1.68.65H111.43v17.48h27.9a2.31,2.31,0,0,1,1.68.65,2.17,2.17,0,0,1,.65,1.58v6.7a2.16,2.16,0,0,1-.65,1.58,2.31,2.31,0,0,1-1.68.65h-27.9v23a2.16,2.16,0,0,1-.65,1.58,2.23,2.23,0,0,1-1.67.65h-8.37A2.12,2.12,0,0,1,99.16,282Z"/><path d="M150.49,282a2.16,2.16,0,0,1-.65-1.58V219.87a2.4,2.4,0,0,1,.6-1.68,2.15,2.15,0,0,1,1.63-.65h24.09q11.44,0,17.9,5.3t6.46,15.07a19.22,19.22,0,0,1-3.25,11.39,18.1,18.1,0,0,1-9.11,6.65l13.48,23.72a2.25,2.25,0,0,1,.28,1,1.85,1.85,0,0,1-.6,1.4,2,2,0,0,1-1.35.55h-8.56a3.53,3.53,0,0,1-2.32-.69,6.67,6.67,0,0,1-1.49-1.82l-11.91-22H163v22.32a2.16,2.16,0,0,1-.65,1.58,2.23,2.23,0,0,1-1.67.65h-8.56A2.12,2.12,0,0,1,150.49,282Zm25.39-34.5q5.58,0,8.37-2.47t2.79-7.2q0-4.75-2.79-7.3T175.88,228H163v19.53Z"/><path d="M202.48,282.09a1.92,1.92,0,0,1-.56-1.4l.19-.84,22.32-60a3.34,3.34,0,0,1,3.34-2.33H238a3.36,3.36,0,0,1,3.35,2.33l22.32,60,.19.84a1.82,1.82,0,0,1-.61,1.4,1.93,1.93,0,0,1-1.35.55h-8.27a2.71,2.71,0,0,1-2.7-1.76l-4.28-11.26H219.12l-4.27,11.26a2.71,2.71,0,0,1-2.7,1.76h-8.28A1.88,1.88,0,0,1,202.48,282.09Zm19.9-23.25h21l-10.51-28.65Z"/><path d="M268.41,282a2.16,2.16,0,0,1-.65-1.58V219.87a2.36,2.36,0,0,1,.61-1.68,2.11,2.11,0,0,1,1.62-.65h7.54a3.13,3.13,0,0,1,2.79,1.77l17.95,33.29,17.94-33.29a3.13,3.13,0,0,1,2.79-1.77h7.45a2.28,2.28,0,0,1,1.67.65,2.31,2.31,0,0,1,.65,1.68v60.54a2.13,2.13,0,0,1-.65,1.63,2.38,2.38,0,0,1-1.67.6h-8a2.24,2.24,0,0,1-2.24-2.23v-40L303.29,265a3.27,3.27,0,0,1-3.07,2h-3.91a3.59,3.59,0,0,1-3.16-2l-12.93-24.55v40a2.24,2.24,0,0,1-.6,1.58,2.1,2.1,0,0,1-1.63.65h-8A2.14,2.14,0,0,1,268.41,282Z"/><path d="M339.28,282a2.12,2.12,0,0,1-.65-1.58V219.87a2.4,2.4,0,0,1,.6-1.68,2.13,2.13,0,0,1,1.63-.65h41a2.23,2.23,0,0,1,2.33,2.33v6.23a2.15,2.15,0,0,1-.65,1.63,2.4,2.4,0,0,1-1.68.6h-30.5v16.28h28.46a2.23,2.23,0,0,1,1.67.65,2.27,2.27,0,0,1,.65,1.67v5.86a2.13,2.13,0,0,1-.65,1.63,2.36,2.36,0,0,1-1.67.6H351.37v16.83h31.25a2.37,2.37,0,0,1,1.67.61,2.13,2.13,0,0,1,.65,1.63v6.32a2.13,2.13,0,0,1-.65,1.63,2.36,2.36,0,0,1-1.67.6H340.86A2.12,2.12,0,0,1,339.28,282Z"/><path d="M387.54,289.9a1.92,1.92,0,0,1-.55-1.4,2.8,2.8,0,0,1,.18-1l31.62-76a4,4,0,0,1,1.12-1.35,2.85,2.85,0,0,1,1.86-.6h6a1.9,1.9,0,0,1,1.4.55,1.92,1.92,0,0,1,.56,1.4,2.8,2.8,0,0,1-.19,1l-31.81,76a3.27,3.27,0,0,1-1,1.35,2.84,2.84,0,0,1-1.91.6h-6A1.81,1.81,0,0,1,387.54,289.9Z"/><path d="M433.86,277a1.75,1.75,0,0,1-.56-1.35v-7.26a2.83,2.83,0,0,1,.56-1.81,8.38,8.38,0,0,1,1.76-1.53L458.13,250l-22.51-15.07a8.38,8.38,0,0,1-1.76-1.53,3,3,0,0,1-.56-1.91v-7.16a1.83,1.83,0,0,1,1.86-2,3.05,3.05,0,0,1,1.86.84l31.53,21.48a7.69,7.69,0,0,1,2.09,2,4,4,0,0,1,.6,2.23v2.24a3.76,3.76,0,0,1-.65,2.23,7.53,7.53,0,0,1-2,1.86L437,276.78a3,3,0,0,1-1.86.75A1.85,1.85,0,0,1,433.86,277Z"/></svg>