<svg id="Capa_1" data-name="Capa 1" xmlns="http://www.w3.org/2000/svg" viewBox="0 0 500 500"><defs><style>.cls-1,.cls-2{fill:none;stroke:#333;stroke-linecap:round;stroke-linejoin:round;}.cls-1{stroke-width:3px;}.cls-2{stroke-width:5px;}</style></defs><title>List-DA</title><line class="cls-1" x1="68" y1="182.17" x2="432" y2="182.17"/><line class="cls-2" x1="68" y1="112.65" x2="285.89" y2="112.65"/><line class="cls-2" x1="68" y1="131.17" x2="285.89" y2="131.17"/><line class="cls-2" x1="68" y1="149.1" x2="246.99" y2="149.1"/><polyline class="cls-2" points="422.45 121.32 432 130.87 422.45 140.43"/><line class="cls-2" x1="381.54" y1="130.87" x2="411.94" y2="130.87"/><line class="cls-1" x1="68" y1="284.76" x2="432" y2="284.76"/><line class="cls-2" x1="68" y1="215.24" x2="285.89" y2="215.24"/><line class="cls-2" x1="68" y1="233.76" x2="285.89" y2="233.76"/><line class="cls-2" x1="68" y1="251.69" x2="246.99" y2="251.69"/><polyline class="cls-2" points="422.45 223.91 432 233.47 422.45 243.02"/><line class="cls-2" x1="381.54" y1="233.47" x2="411.94" y2="233.47"/><line class="cls-1" x1="68" y1="387.35" x2="432" y2="387.35"/><line class="cls-2" x1="68" y1="317.83" x2="285.89" y2="317.83"/><line class="cls-2" x1="68" y1="336.36" x2="285.89" y2="336.36"/><line class="cls-2" x1="68" y1="354.28" x2="246.99" y2="354.28"/><polyline class="cls-2" points="422.45 326.5 432 336.06 422.45 345.61"/><line class="cls-2" x1="381.54" y1="336.06" x2="411.94" y2="336.06"/></svg>