<svg id="Capa_1" data-name="Capa 1" xmlns="http://www.w3.org/2000/svg" viewBox="0 0 500 500"><defs><style>.cls-1,.cls-2{fill:none;}.cls-1,.cls-2,.cls-3{stroke:#333;stroke-linecap:round;stroke-linejoin:round;}.cls-1{stroke-width:12px;}.cls-2,.cls-3{stroke-width:5px;}.cls-3{fill:#fc0;}</style></defs><title>List-ITD</title><line class="cls-1" x1="39.64" y1="170.1" x2="126.08" y2="170.1"/><line class="cls-2" x1="37.4" y1="203.17" x2="152.27" y2="203.17"/><line class="cls-2" x1="37.4" y1="222.44" x2="118.99" y2="222.44"/><circle class="cls-3" cx="67.76" cy="114.82" r="30.36"/><line class="cls-1" x1="194.76" y1="170.1" x2="281.2" y2="170.1"/><line class="cls-2" x1="192.53" y1="203.17" x2="307.4" y2="203.17"/><line class="cls-2" x1="192.53" y1="222.44" x2="274.12" y2="222.44"/><circle class="cls-3" cx="222.89" cy="114.82" r="30.36"/><line class="cls-1" x1="349.97" y1="170.1" x2="436.41" y2="170.1"/><line class="cls-2" x1="347.73" y1="203.17" x2="462.6" y2="203.17"/><line class="cls-2" x1="347.73" y1="222.44" x2="429.32" y2="222.44"/><circle class="cls-3" cx="378.09" cy="114.82" r="30.36"/><line class="cls-1" x1="39.64" y1="363.2" x2="126.08" y2="363.2"/><line class="cls-2" x1="37.4" y1="396.27" x2="152.27" y2="396.27"/><line class="cls-2" x1="37.4" y1="415.54" x2="118.99" y2="415.54"/><circle class="cls-3" cx="67.76" cy="307.92" r="30.36"/><line class="cls-1" x1="194.76" y1="363.2" x2="281.2" y2="363.2"/><line class="cls-2" x1="192.53" y1="396.27" x2="307.4" y2="396.27"/><line class="cls-2" x1="192.53" y1="415.54" x2="274.12" y2="415.54"/><circle class="cls-3" cx="222.89" cy="307.92" r="30.36"/></svg>