<svg id="Capa_1" data-name="Capa 1" xmlns="http://www.w3.org/2000/svg" viewBox="0 0 500 500"><defs><style>.cls-1,.cls-3{fill:none;}.cls-1,.cls-2,.cls-3{stroke:#333;stroke-linecap:round;stroke-linejoin:round;}.cls-1,.cls-2{stroke-width:5px;}.cls-2{fill:#fc0;}.cls-3{stroke-width:12px;}</style></defs><title>List-ITDA-Drop</title><line class="cls-1" x1="87.72" y1="197.61" x2="157.03" y2="197.61"/><line class="cls-1" x1="87.72" y1="213.46" x2="141.77" y2="213.46"/><circle class="cls-2" cx="49.88" cy="206.12" r="22.09"/><line class="cls-1" x1="87.72" y1="285.37" x2="157.03" y2="285.37"/><line class="cls-1" x1="87.72" y1="301.22" x2="141.77" y2="301.22"/><circle class="cls-2" cx="49.88" cy="293.88" r="22.09"/><line class="cls-1" x1="245.05" y1="197.61" x2="314.37" y2="197.61"/><line class="cls-1" x1="245.05" y1="213.46" x2="299.1" y2="213.46"/><circle class="cls-2" cx="207.21" cy="206.12" r="22.09"/><line class="cls-1" x1="245.05" y1="285.37" x2="314.37" y2="285.37"/><line class="cls-1" x1="245.05" y1="301.22" x2="299.1" y2="301.22"/><circle class="cls-2" cx="207.21" cy="293.88" r="22.09"/><polyline class="cls-1" points="472.22 224.52 462.66 234.07 453.11 224.52"/><line class="cls-3" x1="342.25" y1="195.99" x2="472.22" y2="195.99"/><line class="cls-1" x1="342.25" y1="234.17" x2="439.87" y2="234.17"/><rect class="cls-2" x="342.57" y="279.03" width="129.65" height="29.69"/></svg>