<?xml version="1.0" encoding="utf-8"?>
<!-- Generator: Adobe Illustrator 22.1.0, SVG Export Plug-In . SVG Version: 6.00 Build 0)  -->
<svg version="1.1" id="Capa_1" xmlns="http://www.w3.org/2000/svg" xmlns:xlink="http://www.w3.org/1999/xlink" x="0px" y="0px"
	 viewBox="0 0 500 500" style="enable-background:new 0 0 500 500;" xml:space="preserve">
<style type="text/css">
	.st0{fill:#FFCC00;}
	.st1{fill:#464646;}
</style>
<title>Btn-P-Stacked</title>
<g>
	<path class="st0" d="M250,77.7c-62.8,0-114.6,51.1-114.6,114.6c0,21.4,6.2,42.1,17.3,60.1l99.4,159.5l96.7-161.6
		c11-17.3,16.6-38,16.6-58.7C365.3,128.8,312.8,77.7,250,77.7z M250.7,237.9c-25.5,0-46.3-20.7-46.3-46.3
		c0-25.5,20.7-46.3,46.3-46.3c25.5,0,46.3,20.7,46.3,46.3C296.3,217.2,276.2,237.9,250.7,237.9z"/>
	<g>
		<path class="st1" d="M250.7,54.3c-75.9,0-138.1,61.4-138.1,137.4c0,25.5,6.9,50.4,20.7,72.5l109.1,176c2.1,3.5,5.5,5.5,9.7,5.5
			l0,0c4.1,0,7.6-2.1,9.7-5.5l106.3-177.4c12.4-21.4,19.3-45.6,19.3-70.4C388.1,115.7,325.9,54.3,250.7,54.3 M348.7,250.3
			l-96.7,161.6l-99.4-159.5c-11-18-17.3-38.7-17.3-60.1c0-63.5,51.8-114.6,114.6-114.6s115.3,51.1,115.3,113.9
			C365.3,212.4,359.8,233.1,348.7,250.3z"/>
		<path class="st1" d="M250.7,123.3c-38,0-69,31.1-69,69s30.4,69,69,69s69-31.8,69-69C319,153.7,288,123.3,250.7,123.3 M250.7,237.9
			c-25.5,0-46.3-20.7-46.3-46.3s20.7-46.3,46.3-46.3s46.3,20.7,46.3,46.3C296.3,217.2,276.2,237.9,250.7,237.9z"/>
	</g>
</g>
</svg>
