<svg id="Capa_1" data-name="Capa 1" xmlns="http://www.w3.org/2000/svg" viewBox="0 0 500 500"><defs><style>.cls-1{fill:#fc0;stroke:#333;stroke-linecap:round;stroke-linejoin:round;stroke-width:5px;}</style></defs><title>Publicidad</title><rect class="cls-1" x="185.09" y="222.57" width="129.75" height="54.86"/><rect class="cls-1" x="342.42" y="222.57" width="129.75" height="54.86"/><rect class="cls-1" x="27.75" y="222.57" width="129.75" height="54.86"/><path d="M91,264.57a.75.75,0,0,1-.23-.57v-2.3a10.58,10.58,0,0,1-4.06-1.15,7,7,0,0,1-2.56-2.25,5.65,5.65,0,0,1-.94-2.85.67.67,0,0,1,.22-.47.7.7,0,0,1,.51-.22h3a1,1,0,0,1,.61.15,1.43,1.43,0,0,1,.41.48,3.51,3.51,0,0,0,1.53,1.87,5.82,5.82,0,0,0,3.21.76,6.29,6.29,0,0,0,3.43-.77,2.43,2.43,0,0,0,1.17-2.12,2,2,0,0,0-.6-1.48,4.88,4.88,0,0,0-1.79-1c-.8-.29-2-.65-3.53-1.07a13.89,13.89,0,0,1-5.68-2.43,5.3,5.3,0,0,1-1.81-4.33,5.76,5.76,0,0,1,1.86-4.34,8.55,8.55,0,0,1,5.07-2.17V236a.75.75,0,0,1,.23-.57.78.78,0,0,1,.56-.22h2a.75.75,0,0,1,.79.79v2.33a9.08,9.08,0,0,1,3.66,1.27,7.3,7.3,0,0,1,2.33,2.25,5.16,5.16,0,0,1,.87,2.5.66.66,0,0,1-.19.49.68.68,0,0,1-.49.2H97.47a1,1,0,0,1-1-.59,2.65,2.65,0,0,0-1.3-1.76,5,5,0,0,0-2.74-.71,5.05,5.05,0,0,0-2.84.69,2.27,2.27,0,0,0-1,2,2.2,2.2,0,0,0,.51,1.48,4.38,4.38,0,0,0,1.64,1.05,27.28,27.28,0,0,0,3.24,1,22.63,22.63,0,0,1,4.65,1.48,6.12,6.12,0,0,1,2.55,2.07,6.37,6.37,0,0,1-1.24,7.82,9.73,9.73,0,0,1-5.53,2.14V264a.75.75,0,0,1-.79.79h-2A.78.78,0,0,1,91,264.57Z"/><path d="M248.41,264.57a.71.71,0,0,1-.23-.57v-2.3a10.58,10.58,0,0,1-4.06-1.15,7,7,0,0,1-2.57-2.25,5.54,5.54,0,0,1-.93-2.85.66.66,0,0,1,.21-.47.7.7,0,0,1,.51-.22h3a1.08,1.08,0,0,1,.61.15,1.55,1.55,0,0,1,.41.48,3.51,3.51,0,0,0,1.53,1.87,5.76,5.76,0,0,0,3.2.76,6.27,6.27,0,0,0,3.43-.77,2.43,2.43,0,0,0,1.17-2.12,2,2,0,0,0-.59-1.48,5,5,0,0,0-1.79-1c-.8-.29-2-.65-3.54-1.07a13.89,13.89,0,0,1-5.68-2.43,5.3,5.3,0,0,1-1.81-4.33,5.76,5.76,0,0,1,1.86-4.34,8.58,8.58,0,0,1,5.08-2.17V236a.71.71,0,0,1,.23-.57.75.75,0,0,1,.55-.22h2a.74.74,0,0,1,.79.79v2.33a9,9,0,0,1,3.66,1.27,7.44,7.44,0,0,1,2.34,2.25,5.37,5.37,0,0,1,.87,2.5.68.68,0,0,1-.69.69h-3.12a1,1,0,0,1-1-.59,2.67,2.67,0,0,0-1.29-1.76,5,5,0,0,0-2.75-.71,5.08,5.08,0,0,0-2.84.69,2.27,2.27,0,0,0-1,2,2.2,2.2,0,0,0,.51,1.48,4.35,4.35,0,0,0,1.65,1.05,26.45,26.45,0,0,0,3.23,1,22.63,22.63,0,0,1,4.65,1.48,6.12,6.12,0,0,1,2.55,2.07,5.68,5.68,0,0,1,.82,3.19,5.81,5.81,0,0,1-2.05,4.63,9.76,9.76,0,0,1-5.54,2.14V264a.74.74,0,0,1-.79.79h-2A.75.75,0,0,1,248.41,264.57Z"/><path d="M405.7,264.57a.75.75,0,0,1-.23-.57v-2.3a10.58,10.58,0,0,1-4.06-1.15,6.93,6.93,0,0,1-2.56-2.25,5.56,5.56,0,0,1-.94-2.85.66.66,0,0,1,.21-.47.74.74,0,0,1,.51-.22h3a1.06,1.06,0,0,1,.61.15,1.55,1.55,0,0,1,.41.48,3.51,3.51,0,0,0,1.53,1.87,5.78,5.78,0,0,0,3.2.76,6.33,6.33,0,0,0,3.44-.77,2.44,2.44,0,0,0,1.16-2.12,2,2,0,0,0-.59-1.48,4.88,4.88,0,0,0-1.79-1c-.8-.29-2-.65-3.53-1.07a14,14,0,0,1-5.69-2.43,5.33,5.33,0,0,1-1.8-4.33,5.75,5.75,0,0,1,1.85-4.34,8.58,8.58,0,0,1,5.08-2.17V236a.75.75,0,0,1,.23-.57.76.76,0,0,1,.56-.22h2a.74.74,0,0,1,.57.22.77.77,0,0,1,.21.57v2.33a9.07,9.07,0,0,1,3.67,1.27,7.4,7.4,0,0,1,2.33,2.25,5.16,5.16,0,0,1,.87,2.5.63.63,0,0,1-.2.49.66.66,0,0,1-.49.2h-3.12a1,1,0,0,1-.95-.59,2.68,2.68,0,0,0-1.3-1.76,5,5,0,0,0-2.75-.71,5.08,5.08,0,0,0-2.84.69,2.26,2.26,0,0,0-1,2,2.2,2.2,0,0,0,.51,1.48,4.3,4.3,0,0,0,1.64,1.05,26.7,26.7,0,0,0,3.24,1,22.63,22.63,0,0,1,4.65,1.48,6,6,0,0,1,2.54,2.07,5.68,5.68,0,0,1,.82,3.19,5.81,5.81,0,0,1-2.05,4.63,9.73,9.73,0,0,1-5.54,2.14V264a.77.77,0,0,1-.21.57.74.74,0,0,1-.57.22h-2A.76.76,0,0,1,405.7,264.57Z"/></svg>