<svg id="Capa_1" data-name="Capa 1" xmlns="http://www.w3.org/2000/svg" viewBox="0 0 500 500"><defs><style>.cls-1,.cls-3{fill:#fc0;stroke:#333;stroke-linecap:round;stroke-linejoin:round;}.cls-1{stroke-width:10px;}.cls-2{fill:#333;}.cls-3{stroke-width:5px;}</style></defs><title>Streaming</title><rect class="cls-1" x="27.63" y="158.72" width="444.74" height="192.42"/><polygon class="cls-2" points="219.27 206.02 219.27 303.84 280.73 254.93 219.27 206.02"/><rect class="cls-3" x="267.1" y="118.86" width="184.27" height="79.73"/><path class="cls-2" d="M301.68,175.8a2.2,2.2,0,0,1-.72-1.08l-10.1-32-.1-.45a1,1,0,0,1,.32-.72,1.07,1.07,0,0,1,.78-.33h6.55a1.72,1.72,0,0,1,1.22.43,2,2,0,0,1,.63.92l6.8,22.6,6.85-22.6a1.9,1.9,0,0,1,.62-.95,1.84,1.84,0,0,1,1.23-.4h6.55a1,1,0,0,1,.75.33,1,1,0,0,1,.3.72,2,2,0,0,1-.05.45l-10.15,32a2,2,0,0,1-.68,1.08,2.11,2.11,0,0,1-1.37.42h-8.05A2.14,2.14,0,0,1,301.68,175.8Z"/><path class="cls-2" d="M334.78,175.85a1.21,1.21,0,0,1-.37-.88v-32.5a1.16,1.16,0,0,1,.37-.9,1.26,1.26,0,0,1,.88-.35h7.15a1.24,1.24,0,0,1,.9.35,1.22,1.22,0,0,1,.35.9V175a1.27,1.27,0,0,1-.35.88,1.18,1.18,0,0,1-.9.37h-7.15A1.19,1.19,0,0,1,334.78,175.85Z"/><path class="cls-2" d="M366,175.8a2.2,2.2,0,0,1-.72-1.08l-10.1-32-.1-.45a1,1,0,0,1,.32-.72,1.07,1.07,0,0,1,.78-.33h6.55a1.72,1.72,0,0,1,1.22.43,2,2,0,0,1,.63.92l6.8,22.6,6.85-22.6a1.9,1.9,0,0,1,.62-.95,1.84,1.84,0,0,1,1.23-.4h6.55a1,1,0,0,1,.75.33,1,1,0,0,1,.3.72,2,2,0,0,1-.05.45l-10.15,32a2,2,0,0,1-.68,1.08,2.13,2.13,0,0,1-1.37.42h-8.05A2.14,2.14,0,0,1,366,175.8Z"/><path class="cls-2" d="M400.91,173.27q-4.1-3.45-4.35-10.15c0-.93-.05-2.37-.05-4.3s0-3.38.05-4.35q.19-6.6,4.37-10.17t11.18-3.58q6.94,0,11.12,3.58t4.38,10.17c.07,1.93.1,3.38.1,4.35s0,2.43-.1,4.3q-.25,6.7-4.33,10.15t-11.17,3.45Q405,176.72,400.91,173.27Zm15.35-5.62a7,7,0,0,0,1.65-4.83c.07-1.93.1-3.32.1-4.15s0-2.18-.1-4a7,7,0,0,0-1.65-4.82,6.31,6.31,0,0,0-8.35,0,6.87,6.87,0,0,0-1.65,4.82c0,.93-.05,2.28-.05,4s0,3.18.05,4.15a6.9,6.9,0,0,0,1.65,4.83,6.34,6.34,0,0,0,8.35,0Z"/></svg>