<svg id="Capa_1" data-name="Capa 1" xmlns="http://www.w3.org/2000/svg" viewBox="0 0 500 500"><defs><style>.cls-1,.cls-2,.cls-3,.cls-4{fill:none;stroke:#333;stroke-linecap:round;stroke-linejoin:round;}.cls-1{stroke-width:24px;}.cls-2{stroke-width:8px;}.cls-3{stroke-width:3px;}.cls-4{stroke-width:5px;}</style></defs><title>Text-TH-2C</title><line class="cls-1" x1="44.1" y1="124.31" x2="209.27" y2="124.31"/><line class="cls-2" x1="44.1" y1="190.16" x2="230.1" y2="190.16"/><line class="cls-2" x1="44.1" y1="223.26" x2="230.1" y2="223.26"/><line class="cls-2" x1="44.1" y1="255.3" x2="230.1" y2="255.3"/><line class="cls-2" x1="44.1" y1="287.33" x2="194.85" y2="287.33"/><line class="cls-2" x1="269.9" y1="190.16" x2="455.9" y2="190.16"/><line class="cls-2" x1="269.9" y1="223.26" x2="455.9" y2="223.26"/><line class="cls-2" x1="269.9" y1="255.3" x2="455.9" y2="255.3"/><line class="cls-2" x1="269.9" y1="287.33" x2="420.64" y2="287.33"/><line class="cls-3" x1="269.9" y1="375.69" x2="455.9" y2="375.69"/><line class="cls-2" x1="375.79" y1="334.79" x2="418.54" y2="334.79"/><polyline class="cls-4" points="443.64 322.53 455.9 334.79 443.64 347.05"/><line class="cls-3" x1="44.1" y1="375.69" x2="230.1" y2="375.69"/><line class="cls-2" x1="149.99" y1="334.79" x2="192.75" y2="334.79"/><polyline class="cls-4" points="217.84 322.53 230.1 334.79 217.84 347.05"/></svg>