<svg id="Capa_1" data-name="Capa 1" xmlns="http://www.w3.org/2000/svg" viewBox="0 0 500 500"><defs><style>.cls-1,.cls-2,.cls-3,.cls-4{fill:none;stroke:#333;stroke-linecap:round;stroke-linejoin:round;}.cls-1{stroke-width:24px;}.cls-2{stroke-width:8px;}.cls-3{stroke-width:3px;}.cls-4{stroke-width:5px;}</style></defs><title>Text-THA-3C</title><line class="cls-1" x1="27.88" y1="112.64" x2="193.05" y2="112.64"/><line class="cls-2" x1="27.88" y1="178.5" x2="156.88" y2="178.5"/><line class="cls-2" x1="27.88" y1="211.6" x2="156.88" y2="211.6"/><line class="cls-2" x1="27.88" y1="243.63" x2="156.88" y2="243.63"/><line class="cls-2" x1="27.88" y1="275.67" x2="118.62" y2="275.67"/><line class="cls-2" x1="185.38" y1="178.5" x2="314.38" y2="178.5"/><line class="cls-2" x1="185.38" y1="211.6" x2="314.38" y2="211.6"/><line class="cls-2" x1="185.38" y1="243.63" x2="314.38" y2="243.63"/><line class="cls-2" x1="185.38" y1="275.67" x2="276.12" y2="275.67"/><line class="cls-2" x1="343.05" y1="178.5" x2="472.05" y2="178.5"/><line class="cls-2" x1="343.05" y1="211.6" x2="472.05" y2="211.6"/><line class="cls-2" x1="343.05" y1="243.63" x2="472.05" y2="243.63"/><line class="cls-2" x1="343.05" y1="275.67" x2="436.79" y2="275.67"/><line class="cls-3" x1="28.13" y1="387.36" x2="472.12" y2="387.36"/><line class="cls-2" x1="372.01" y1="333.45" x2="434.77" y2="333.45"/><polyline class="cls-4" points="459.86 321.19 472.12 333.45 459.86 345.71"/></svg>