<svg id="Capa_1" data-name="Capa 1" xmlns="http://www.w3.org/2000/svg" viewBox="0 0 500 500"><defs><style>.cls-1,.cls-3{fill:none;}.cls-1,.cls-2,.cls-3{stroke:#333;stroke-linecap:round;stroke-linejoin:round;}.cls-1,.cls-2{stroke-width:8px;}.cls-2{fill:#fff;}.cls-3{stroke-width:5px;}</style></defs><title>Timeline</title><line class="cls-1" x1="178.13" y1="114.78" x2="220.13" y2="114.78"/><line class="cls-1" x1="178.13" y1="231.77" x2="220.13" y2="231.77"/><line class="cls-1" x1="178.13" y1="348.77" x2="220.13" y2="348.77"/><line class="cls-1" x1="252.72" y1="114.78" x2="344.72" y2="114.78"/><line class="cls-1" x1="252.72" y1="231.77" x2="344.72" y2="231.77"/><line class="cls-1" x1="252.72" y1="348.77" x2="344.72" y2="348.77"/><line class="cls-1" x1="114.89" y1="114.78" x2="114.89" y2="348.77"/><circle class="cls-2" cx="114.89" cy="114.78" r="25.5"/><circle class="cls-2" cx="114.89" cy="231.77" r="25.5"/><circle class="cls-2" cx="114.89" cy="348.77" r="25.5"/><line class="cls-3" x1="252.72" y1="140.28" x2="410.61" y2="140.28"/><line class="cls-3" x1="252.72" y1="158.8" x2="410.61" y2="158.8"/><line class="cls-3" x1="252.72" y1="176.73" x2="371.7" y2="176.73"/><line class="cls-3" x1="252.72" y1="257.27" x2="410.61" y2="257.27"/><line class="cls-3" x1="252.72" y1="275.8" x2="410.61" y2="275.8"/><line class="cls-3" x1="252.72" y1="293.73" x2="371.7" y2="293.73"/><line class="cls-3" x1="252.72" y1="374.27" x2="410.61" y2="374.27"/><line class="cls-3" x1="252.72" y1="392.8" x2="410.61" y2="392.8"/><line class="cls-3" x1="252.72" y1="410.72" x2="371.7" y2="410.72"/></svg>