<svg id="Capa_1" data-name="Capa 1" xmlns="http://www.w3.org/2000/svg" viewBox="0 0 500 500"><title>Title-small_1</title><path d="M185.32,277.64a1.81,1.81,0,0,1-.55-1.34V233H170.22a1.8,1.8,0,0,1-1.33-.56,1.88,1.88,0,0,1-.55-1.41v-5.9a2,2,0,0,1,.51-1.41,1.77,1.77,0,0,1,1.37-.55h40.19a1.88,1.88,0,0,1,2,2V231a1.88,1.88,0,0,1-.55,1.41,1.9,1.9,0,0,1-1.41.56H195.94V276.3a1.9,1.9,0,0,1-.51,1.34,1.78,1.78,0,0,1-1.38.55h-7.39A1.81,1.81,0,0,1,185.32,277.64Z"/><path d="M219.14,230.07a1.84,1.84,0,0,1-.56-1.34V223a1.92,1.92,0,0,1,.56-1.42,1.83,1.83,0,0,1,1.33-.55h7.24a2,2,0,0,1,1.41.55,1.91,1.91,0,0,1,.55,1.42v5.74a1.76,1.76,0,0,1-.59,1.34,2,2,0,0,1-1.37.55h-7.24A1.83,1.83,0,0,1,219.14,230.07Zm.31,47.57a1.81,1.81,0,0,1-.55-1.34V239.19a1.78,1.78,0,0,1,.55-1.38,1.9,1.9,0,0,1,1.34-.51h6.68a1.83,1.83,0,0,1,1.34.55,1.85,1.85,0,0,1,.55,1.34V276.3a1.85,1.85,0,0,1-.55,1.34,1.83,1.83,0,0,1-1.34.55h-6.68A1.81,1.81,0,0,1,219.45,277.64Z"/><path d="M247.52,274.46q-3.61-3.73-3.61-11V245.71h-6.22a1.88,1.88,0,0,1-1.88-1.88v-4.64a1.81,1.81,0,0,1,.55-1.34,1.79,1.79,0,0,1,1.33-.55h6.22V224.25a1.78,1.78,0,0,1,.55-1.38,1.87,1.87,0,0,1,1.33-.51h6.53a1.76,1.76,0,0,1,1.89,1.89V237.3H264a1.79,1.79,0,0,1,1.33.55,1.81,1.81,0,0,1,.55,1.34v4.64a1.88,1.88,0,0,1-1.88,1.88h-9.83v16.91a9,9,0,0,0,1.18,5.11,4.3,4.3,0,0,0,3.85,1.73h5.5a1.76,1.76,0,0,1,1.89,1.89v4.95a1.9,1.9,0,0,1-.51,1.34,1.78,1.78,0,0,1-1.38.55H258.3Q251.13,278.19,247.52,274.46Z"/><path d="M274.26,277.64a1.81,1.81,0,0,1-.55-1.34V224.25a1.78,1.78,0,0,1,.55-1.38,1.9,1.9,0,0,1,1.34-.51h6.6a1.76,1.76,0,0,1,1.89,1.89V276.3a1.9,1.9,0,0,1-.51,1.34,1.78,1.78,0,0,1-1.38.55h-6.6A1.81,1.81,0,0,1,274.26,277.64Z"/><path d="M298.28,274q-5.14-5-5.46-14.32l-.08-2q0-9.84,5.15-15.49t14.27-5.67q9.36,0,14.43,5.67t5.07,15.09v1.66a1.79,1.79,0,0,1-.55,1.33,1.89,1.89,0,0,1-1.41.55H303.59v.63a12.16,12.16,0,0,0,2.4,7.28,7.4,7.4,0,0,0,6.17,2.87,8.86,8.86,0,0,0,7.31-3.62,4.17,4.17,0,0,1,1.11-1.06,3.2,3.2,0,0,1,1.33-.2h6.92a2,2,0,0,1,1.22.39,1.32,1.32,0,0,1,.51,1.1c0,1.26-.74,2.74-2.24,4.45a18.58,18.58,0,0,1-6.41,4.44,23.21,23.21,0,0,1-9.67,1.89Q303.44,279,298.28,274Zm22.53-19.82V254a11.24,11.24,0,0,0-2.32-7.43,7.79,7.79,0,0,0-6.33-2.79,7.68,7.68,0,0,0-6.29,2.79,11.39,11.39,0,0,0-2.28,7.43v.16Z"/></svg>