<svg id="Capa_1" data-name="Capa 1" xmlns="http://www.w3.org/2000/svg" viewBox="0 0 500 500"><title>Title-large</title><path d="M61.5,330.56a5.3,5.3,0,0,1-1.6-3.9V200.38H17.5a5.3,5.3,0,0,1-3.9-1.6,5.58,5.58,0,0,1-1.6-4.13V177.47a5.81,5.81,0,0,1,1.49-4.13,5.2,5.2,0,0,1,4-1.6H134.61a5.48,5.48,0,0,1,5.73,5.73v17.18a5.48,5.48,0,0,1-5.73,5.73H92.44V326.66a5.54,5.54,0,0,1-1.49,3.9,5.2,5.2,0,0,1-4,1.6H65.4A5.3,5.3,0,0,1,61.5,330.56Z"/><path d="M160.05,191.9a5.28,5.28,0,0,1-1.61-3.89V171.28a5.6,5.6,0,0,1,1.61-4.13,5.27,5.27,0,0,1,3.89-1.6H185a5.5,5.5,0,0,1,5.73,5.73V188A5.12,5.12,0,0,1,189,191.9a5.72,5.72,0,0,1-4,1.61H163.94A5.28,5.28,0,0,1,160.05,191.9ZM161,330.56a5.3,5.3,0,0,1-1.6-3.9V218.49a5.2,5.2,0,0,1,1.6-4,5.54,5.54,0,0,1,3.9-1.49h19.48a5.46,5.46,0,0,1,5.5,5.5V326.66a5.46,5.46,0,0,1-5.5,5.5H164.86A5.3,5.3,0,0,1,161,330.56Z"/><path d="M242.78,321.28q-10.54-10.89-10.54-32V237.51H214.13a5.48,5.48,0,0,1-5.5-5.5V218.49a5.48,5.48,0,0,1,5.5-5.5h18.11V174.94a5.21,5.21,0,0,1,1.6-4,5.54,5.54,0,0,1,3.9-1.49h19a5.13,5.13,0,0,1,5.5,5.5V213h28.65a5.48,5.48,0,0,1,5.5,5.5V232a5.48,5.48,0,0,1-5.5,5.5H262.26v49.27q0,9.86,3.44,14.9t11.23,5h16a5.13,5.13,0,0,1,5.5,5.5v14.44a5.54,5.54,0,0,1-1.49,3.9,5.2,5.2,0,0,1-4,1.6H274.18Q253.31,332.16,242.78,321.28Z"/><path d="M320.7,330.56a5.3,5.3,0,0,1-1.6-3.9V174.94a5.21,5.21,0,0,1,1.6-4,5.54,5.54,0,0,1,3.9-1.49h19.25a5.13,5.13,0,0,1,5.5,5.5V326.66a5.54,5.54,0,0,1-1.49,3.9,5.21,5.21,0,0,1-4,1.6H324.6A5.3,5.3,0,0,1,320.7,330.56Z"/><path d="M390.71,319.79q-15-14.67-15.92-41.71l-.23-5.73q0-28.65,15-45.15t41.59-16.5q27.27,0,42.06,16.5t14.78,44V276a5.34,5.34,0,0,1-1.6,3.9,5.61,5.61,0,0,1-4.13,1.6H406.18v1.84q.46,12.82,7,21.19t18,8.37q13.06,0,21.32-10.54a12.45,12.45,0,0,1,3.21-3.1,9.45,9.45,0,0,1,3.89-.57h20.17a5.62,5.62,0,0,1,3.55,1.15,3.81,3.81,0,0,1,1.49,3.2q0,5.51-6.53,12.95T459.58,329q-12.15,5.51-28.19,5.5Q405.73,334.45,390.71,319.79ZM456.37,262v-.46q0-13.51-6.76-21.65t-18.45-8.14q-11.69,0-18.33,8.14t-6.65,21.65V262Z"/></svg>